Coordinates
version=1
nRows=14
nColumns=24
inDegrees=yes

Units are S.I. units (second, meters, Newtons, ...)
Angles are in degrees.

endheader
time	pelvis_tilt	pelvis_list	pelvis_rotation	pelvis_tx	pelvis_ty	pelvis_tz	hip_flexion_r	hip_adduction_r	hip_rotation_r	knee_angle_r	ankle_angle_r	subtalar_angle_r	mtp_angle_r	hip_flexion_l	hip_adduction_l	hip_rotation_l	knee_angle_l	ankle_angle_l	subtalar_angle_l	mtp_angle_l	lumbar_extension	lumbar_bending	lumbar_rotation
      1.83400000	      2.27054169	      3.44490561	     -5.73002075	      1.43124563	      1.02692659	      0.26007403	     16.56972645	     -5.94039002	     -3.26556780	    -66.23043666	      4.04335474	     -2.35124584	      1.40130706	     10.02098452	      9.03538177	      0.80150686	    -19.64494324	      7.12757388	    -13.71867686	     -2.00654253	     -1.00855544	     -6.86199116	      5.01808683
      1.83816667	      2.30445065	      3.37055183	     -5.49494564	      1.43560538	      1.02756435	      0.25948834	     17.05660342	     -5.82237375	     -3.33823604	    -65.73888261	      4.34386796	     -2.43674652	      2.00494127	      9.58171381	      9.06552758	      1.17847127	    -19.41436060	      7.11391043	    -13.92575900	     -2.22807519	     -1.14504301	     -6.79475405	      4.69363040
      1.84233333	      2.43816583	      3.26007505	     -5.28303254	      1.44002821	      1.02837084	      0.25897455	     17.39991280	     -5.66371643	     -3.39608966	    -65.16947349	      4.62091229	     -2.55674384	      2.11154613	      9.02895144	      9.03925206	      1.42722402	    -19.19030550	      7.19874054	    -13.90330831	     -2.26780882	     -1.40985698	     -6.68697259	      4.50682861
      1.84650000	      2.51978505	      3.16449821	     -5.04979559	      1.44437741	      1.02905500	      0.25841112	     17.79682825	     -5.52583749	     -3.47303452	    -64.57005975	      4.84602507	     -2.73910075	      2.19866087	      8.53583835	      9.03433564	      1.75548920	    -18.96299135	      7.26070077	    -13.98301268	     -2.30681725	     -1.61433223	     -6.57552327	      4.26089280
      1.85066667	      2.55449129	      3.05329155	     -4.80434865	      1.44875514	      1.02964023	      0.25784459	     18.22028031	     -5.37033204	     -3.56905158	    -63.92232393	      5.06034233	     -2.97823388	      2.25084554	      8.10820755	      9.00261931	      2.07222712	    -18.77365414	      7.32955674	    -14.05394378	     -2.33331489	     -1.76881180	     -6.46507061	      4.08071573
      1.85483333	      2.65690183	      2.97135861	     -4.58810936	      1.45311432	      1.03029762	      0.25729769	     18.56743037	     -5.25214737	     -3.63650401	    -63.23548060	      5.22063932	     -3.25552553	      2.31553001	      7.58096730	      9.00770221	      2.39639597	    -18.50637591	      7.33766926	    -14.20364833	     -2.37545439	     -1.98219316	     -6.36201513	      3.76737398
      1.85900000	      2.69389502	      2.85395611	     -4.33091888	      1.45748079	      1.03084989	      0.25671831	     18.95085990	     -5.09946590	     -3.75232629	    -62.49058344	      5.41968122	     -3.54503098	      2.35132994	      7.15761244	      8.96330098	      2.71846852	    -18.33017735	      7.40326747	    -14.27464101	     -2.40095397	     -2.13969390	     -6.24173935	      3.58469596
      1.86316667	      2.75051709	      2.77863735	     -4.11342878	      1.46183343	      1.03137697	      0.25618412	     19.31850878	     -4.98516806	     -3.81878533	    -61.72121934	      5.55087971	     -3.90079161	      2.41405682	      6.68629472	      8.96583397	      3.05478118	    -18.06925156	      7.35533599	    -14.48194869	     -2.46472356	     -2.29864976	     -6.14827809	      3.23570059
      1.86733333	      2.81379477	      2.67190181	     -3.86615380	      1.46617163	      1.03190782	      0.25561709	     19.64691386	     -4.84687761	     -3.92086985	    -60.89386973	      5.65507504	     -4.23887623	      2.44159363	      6.22453894	      8.92872814	      3.38351585	    -17.85994076	      7.41816574	    -14.58099408	     -2.50561672	     -2.47409444	     -6.01983809	      3.01813581
      1.87150000	      2.85273059	      2.57564170	     -3.64218892	      1.47052671	      1.03237628	      0.25509228	     19.99067141	     -4.71163774	     -3.99830821	    -60.02771033	      5.73516376	     -4.61125279	      2.45476084	      5.78961974	      8.89623532	      3.70477289	    -17.64736562	      7.44512572	    -14.71321560	     -2.55088676	     -2.61363326	     -5.90460267	      2.78857966
      1.87566667	      2.87749099	      2.49113681	     -3.41736852	      1.47485554	      1.03277652	      0.25456775	     20.33947090	     -4.59184301	     -4.07477165	    -59.13449819	      5.82393912	     -4.96194561	      2.45183253	      5.37252194	      8.87166469	      4.01826213	    -17.42907983	      7.46754392	    -14.84887597	     -2.59380630	     -2.73489385	     -5.79893630	      2.57276440
      1.87983333	      2.87316813	      2.39730004	     -3.17632440	      1.47917610	      1.03310711	      0.25403571	     20.70394387	     -4.46417489	     -4.16282541	    -58.20496156	      5.91095225	     -5.29164733	      2.43946782	      5.01200548	      8.82947622	      4.31823363	    -17.27007335	      7.53187508	    -14.94127034	     -2.61713922	     -2.84240524	     -5.68553858	      2.42822233
      1.88400000	      2.90127170	      2.32082561	     -2.97580246	      1.48353051	      1.03347510	      0.25356111	     21.01957856	     -4.34283043	     -4.20347005	    -57.22700889	      5.90920162	     -5.69316820	      2.39780847	      4.58003839	      8.80755636	      4.63892700	    -17.02435361	      7.49126842	    -15.13575379	     -2.67213563	     -2.96631812	     -5.58820786	      2.13401947
      1.88816667	      2.90157864	      2.23990573	     -2.75706313	      1.48788692	      1.03376425	      0.25307707	     21.34447154	     -4.22292483	     -4.25902785	    -56.22126830	      5.90062227	     -6.02615693	      2.34953005	      4.19857677	      8.77208022	      4.93428479	    -16.82795843	      7.53722011	    -15.26533270	     -2.71108196	     -3.04854384	     -5.48516667	      1.94436038
